# xmcd
#
# Track frame offsets:
#	150
#	10486
#	23741
#	40793
#	50953
#	70958
#	84304
#	104457
#	121579
#	138250
#	152697
#
# Disc length: 2217 seconds
#
# Revision: 0
# Processed by: cddbd v1.5.2PL0 Copyright (c) Steve Scherf et al.
# Submitted via: EasyCDDAExtractor 16.0.6.1
#
DISCID=8908a70b
DTITLE=Βιτάλη Ελένη - Τα δημοτικά της Ελένης Βιτάλη-CD
DYEAR=1996
DGENRE=Παραδοσιακή
TTITLE0=Τι να σε κάνω γαλανή [καλαματιανός]
TTITLE1=Πρωτομαγιά [τσάμικος, προσ. Τάσου Καρακατσάνη]
TTITLE2=Μάρκος Μπότσαρης [της τάβλας, κλέφτικο]
TTITLE3=Καναρίνι [συρτός, Μ. Ασίας]
TTITLE4=Βγήκα ψηλά και πλάγιασα [της τάβλας, κλέφτικο]
TTITLE5=Γιούργια [Θεσσαλίας, Δημ. Λαβίδα]
TTITLE6=Κάψανε τα Καλάβρυτα [της τάβλας, μοιρολόϊ]
TTITLE7=Ο ήλιος εβασίλεψε [μπάλλος]
TTITLE8=Χαμένη αγάπη [τσάμικος, προσ. Τάσου Καρακατσάνη]
TTITLE9=Ξενητειά το φαρμάκι σ' [Πόντου, Χρύσανθου Θεοδωρίδη]
TTITLE10=Δεν μπορώ μαννούλα μ' [Ηπείρου, πωγωνίσιο]
EXTD=
EXTT0=
EXTT1=
EXTT2=
EXTT3=
EXTT4=
EXTT5=
EXTT6=
EXTT7=
EXTT8=
EXTT9=
EXTT10=
PLAYORDER=
